<svg xmlns="http://www.w3.org/2000/svg" viewBox="0 0 3.912 2.345" height="8.864" width="14.786"><path d="M.016 0l.001.003v.001l.001.001.003.002v.002C.025.01.026.011.027.013.028.014.03.015.03.017A.12.12 0 0 0 .032.02v.002l.003.003.001.004V.028.03h.001v.001L.04.034S.032.03.04.035c.002.001.003.003.004.006v.001l.003.002v.002H.05v.002l.001.003.001.001.001.004.002.002.003.005A.024.024 0 0 1 .063.07h.002l.003.006V.08c.003.002.003.002.004.006l.002.001.002.005c0 .001 0-.002 0 0 0 .001.001.002-.001 0l.003.002L.081.1C.085.103.083.1.085.105c0 0 0-.002 0 0 0 .001.003.002.003.004L.09.112v.002c.003.001.004.002.005.005.003.001.003.004.004.007.001 0 .001 0 0 0C.101.13.103.13.104.134v.002l.002.002.002.003v.002a.014.014 0 0 0 .001 0l.002.003c-.001 0 0 0 0 0l.002.003v.003l.001.002c.002 0 .003.003.004.007v.003L.12.167h.01l.002.008a.3.3 0 0 0 .063.101.292.292 0 0 0 .017.02l.031.035.104.107a1.428 1.428 0 0 1 .17.19l.017.023.018.025.015.018c.016.02.034.04.082.089.043.043.067.068.076.08l.015.02a.228.228 0 0 1 .024.032.11.11 0 0 0 .014.016L.78.936C.78.938.781.94.783.94L.79.95C.793.954.797.96.8.962a.271.271 0 0 1 .026.033l.014.017a.672.672 0 0 0 .025.03c.084.086.1.103.133.144 0 .002.014.02.028.04a2.029 2.029 0 0 0 .099.126l.03.034a1.798 1.798 0 0 0 .063.069l.014.016a1.11 1.11 0 0 1 .063.086.169.169 0 0 1 .021.03c.001 0 .006.005.01.012l.01.013.011.015a.173.173 0 0 0 .013.015l.009.013a.153.153 0 0 0 .01.014l.03.031.034.038a1.503 1.503 0 0 1 .075.084c.003.002.008.01.012.016a.1.1 0 0 0 .01.012.108.108 0 0 1 .009.012.14.14 0 0 0 .01.015c.003.002.005.005.005.007l.004.007a.27.27 0 0 1 .017.023.346.346 0 0 0 .03.04.57.57 0 0 0 .01.012l.012.016a.217.217 0 0 0 .014.017l.029.031a3.161 3.161 0 0 0 .064.07 1.538 1.538 0 0 0 .08.09l.023.024v.01a.033.033 0 0 1 .011.01.035.035 0 0 1 .003.004l.003.004-.002-.002.007.008-.003-.004c.008.01.007.006.009.014l.001.002c.003.008.001.012.003.008.003 0 .005.006.006.01l.001.001.001.001a.11.11 0 0 1 .007.007l-.002-.003.006.007-.003-.004c.002.002.005.004.006.007a.039.039 0 0 1 .003.01l.007.007V2.31l.002.005a.027.027 0 0 1 .006.004c.003.003.004.007.006.01.005.005.004.004.006.01h.001l.002.002.001.002.003.003h.004l.006-.009c.002-.006.005-.012.011-.011a.015.015 0 0 1 .01-.01l.008-.004.004-.003c-.002.001-.01.007.001-.002v.001c.004-.007.005-.011.014-.015.001-.002.002-.004.003-.003.001-.005.003-.01.008-.013l.001-.003c.004-.006.006-.01.013-.013.001-.004.003-.004.01-.01l.002-.002a.019.019 0 0 1 .005-.007l.011-.004.002-.001s-.001 0 0 0c.007-.008.004-.007.012-.012h-.001l.002-.001v-.01l.007-.006.002-.002.015-.015a1.055 1.055 0 0 0 .058-.065l.022-.024a1.144 1.144 0 0 1 .064-.07A6.2 6.2 0 0 1 2.261 2l.013-.017a.17.17 0 0 1 .012-.016l.01-.012a.297.297 0 0 0 .03-.04.326.326 0 0 1 .021-.03l.004-.007c.003-.002.008-.01.012-.015a.12.12 0 0 1 .009-.012.104.104 0 0 0 .01-.013.157.157 0 0 1 .011-.015l.022-.024a1.503 1.503 0 0 1 .088-.098 3.924 3.924 0 0 1 .04-.046.623.623 0 0 0 .034-.043l.008-.012a.042.042 0 0 1 .01-.012c.001 0 .002 0 .002-.003 0-.002.009-.014.019-.027a.194.194 0 0 0 .02-.031 1.394 1.394 0 0 1 .15-.173l.026-.031a.806.806 0 0 1 .033-.04.247.247 0 0 1 .01-.015c.003-.002.016-.021.03-.041l.029-.04c.032-.04.048-.058.132-.145a.603.603 0 0 0 .026-.029l.013-.017L3.1.98a.223.223 0 0 1 .014-.018.084.084 0 0 0 .009-.013C3.125.944 3.128.94 3.13.94c.001 0 .002-.002.002-.005L3.134.93a.097.097 0 0 0 .013-.016L3.16.897l.012-.015.015-.02c.01-.012.034-.037.076-.08.049-.05.066-.068.083-.09L3.36.676 3.378.65l.017-.023.018-.024a.55.55 0 0 1 .03-.038 1.27 1.27 0 0 1 .122-.128 4.028 4.028 0 0 0 .152-.162.3.3 0 0 0 .063-.101l.002-.008h.013l.002-.002V.162L3.798.16l.003-.002.002-.003c.001-.003.003-.004.004-.005L3.81.147c.001-.002.003-.006.005-.007l.003-.004h.001L3.82.133h.001l.005-.006c0-.002.001-.004.004-.005L3.833.12c0-.002.001-.003.003-.005 0 0-.001 0 0 0V.113h.003V.11c.001-.003 0-.003.003-.005h.001l.005-.009.002-.002.002-.002V.09l.001-.002.002-.004s.002 0 0 0l.003-.003h.001L3.863.08V.078l.002-.002.002-.002.002-.003.003-.002.002-.004s0-.002.002-.002l.003-.004.001-.002.003-.005h.001V.05c.002-.005.001-.004.004-.006l.001-.005.001-.002h.001l.001-.003h.001c.001-.003.002-.005.002-.003l.002-.004h.001V.024v.001c.004-.006 0-.002.005-.007V.02c-.001 0 0 0 0 0h-.001l.001-.004.003-.004h.002V.01L3.91.008V.006l.002-.002H1.957zm3.826.103zm-.017.023v.001zM3.798.16zM1.982 2.304zm0 0l-.001.002v-.002zm-.094-.028zm0 0h-.001v-.001.001zM3.91.002zM.016.004l.002.002V.005H.016V.003zM3.91.006h-.002.002zm-.001 0v.001zM.019.01zm3.884.004zm-3.88 0l.002.001L.024.013zm.002.001zm.006.008zm3.867.001h-.001.001zM3.894.03h-.001l.001-.002zM.021.031zm3.872.002l-.001.001h.001zM.043.04L.041.041h.001s-.001 0 0 0l.001.001V.04zm.004.005l.001.001L.047.044zm0 .001h.001zm3.838.001h-.001zM.036.049zm0 .004l.002.001L.036.052zm.002 0v.001L.04.055.038.053zm3.843 0L3.88.055v.001h.001zM.039.06h.003-.003zm.019 0zm-.01.008zm.011 0zm-.011 0L.05.074V.072v.003l.001.001V.072H.05V.07L.048.068H.047zm3.864.004v.001L3.91.075 3.909.08h.001v.004l.002.002V.084zm-.049.002zM.067.077zm3.795 0L3.86.079h.001zM.054.078L.055.08zM.07.083v.001zM.042.086v.001h.001L.042.085zm3.81.002V.09zM3.85.092l-.002.001h.002zM.05.094zm0 .001v.002A.015.015 0 0 1 .049.096zm3.827.012h-.002l.001.001.001-.001zm-.034.002h-.001.001zM0 .11zm.088 0v.001l.001.002L.088.112zM0 .112zm.09.006s.002 0 .002.002L.09.118zM3.833.12zm0 .002zM.096.125zm0 0l.002.001H.097zm3.73.002h-.001zm-.001 0zM.018.13H.015v.002L.018.13zM3.82.131zm0 .005c-.002 0-.001 0 0 0zM.105.138L.107.14s0-.002-.002-.002zm3.708.005h-.001v.001h.001zM3.81.146l-.002.002s.002 0 .002-.002zM.11.15l.001.001zm3.694.002h-.001zm-.003.004L3.8.158h.002V.156zM.115.16zm3.682.004zM.09.164zm1.956 2.074l-.002.003a.06.06 0 0 0 .002-.003zm-.018.016zm-.008.008l-.001.005.002-.006zm.043.007H2.06l-.002.003-.001.003h.007zm-.012.007zm-.017.022c-.001 0-.002 0-.003.002l-.002.004.003-.002a.01.01 0 0 0 .002-.004zM2.03 2.3c-.002 0-.003.002-.006.005a.03.03 0 0 0 .004-.003L2.03 2.3zm-.053.007a.012.012 0 0 1-.003 0c-.002.002-.005.005-.003.005l.006-.005zm.033.013h-.002c0 .001 0 0 0 0h.002zm-.052.006c-.002.001-.002.007-.001.006v-.006zm-.011.011l-.002.005.002-.004zm.045.002h-.001zm-.005.002c-.003.001-.001 0 0 0z" fill="#d8d8d8"/></svg>